<svg width="33" height="34" viewBox="0 0 33 34" fill="none" xmlns="http://www.w3.org/2000/svg">
<path d="M24.1361 16.9924C24.077 17.8933 23.6774 18.738 23.0185 19.3552C22.3595 19.9724 21.4904 20.3158 20.5875 20.3158C19.6847 20.3158 18.8156 19.9724 18.1566 19.3552C17.4976 18.738 17.0981 17.8933 17.039 16.9924V8.57193C17.0981 7.671 17.4976 6.82626 18.1566 6.20908C18.8156 5.59189 19.6847 5.24847 20.5875 5.24847C21.4904 5.24847 22.3595 5.59189 23.0185 6.20908C23.6774 6.82626 24.077 7.671 24.1361 8.57193V16.9924ZM16.3303 0.834778C7.31042 0.834778 0 8.06137 0 16.9924C0 25.9234 7.31042 33.1652 16.3303 33.1652C25.3502 33.1652 32.6505 25.9208 32.6505 16.9924C32.6505 8.06391 25.3401 0.834778 16.3303 0.834778Z" fill="#786FC4"/>
</svg>
