<svg width="14" height="14" viewBox="0 0 14 14" fill="none" xmlns="http://www.w3.org/2000/svg">
<path d="M13.6766 10.7523C13.6385 10.6402 13.4025 10.4758 12.9688 10.2589C12.8508 10.191 12.6828 10.098 12.4659 9.98006C12.249 9.86089 12.0512 9.75364 11.8748 9.65354C11.7074 9.55984 11.5413 9.4637 11.3767 9.36516C11.3529 9.34609 11.2742 9.29247 11.1443 9.2019C11.039 9.12708 10.9283 9.06016 10.8131 9.0017C10.7308 8.9606 10.6404 8.9386 10.5485 8.93735C10.4234 8.93735 10.2685 9.02553 10.0838 9.2019C9.89666 9.37946 9.72625 9.57132 9.57134 9.77986C9.41642 9.98721 9.25078 10.1803 9.07799 10.3566C8.904 10.5342 8.761 10.6224 8.64899 10.6224C8.57687 10.6186 8.50593 10.6024 8.43925 10.5747C8.37449 10.5515 8.31086 10.5253 8.24859 10.496C8.17271 10.4551 8.09838 10.4114 8.02574 10.365C7.9672 10.3286 7.908 10.2932 7.84819 10.2589C7.04691 9.8233 6.31048 9.2778 5.66029 8.63824C5.02077 7.98845 4.47526 7.25242 4.03962 6.45153C4.00501 6.39167 3.96925 6.33247 3.93237 6.27397C3.88623 6.20139 3.84291 6.12705 3.80248 6.05113C3.77303 5.98896 3.74678 5.92532 3.72383 5.86047C3.69645 5.79373 3.68073 5.72279 3.67735 5.65073C3.67735 5.53872 3.76554 5.39572 3.94309 5.22173C4.11946 5.04894 4.31251 4.88449 4.51986 4.72838C4.7284 4.57347 4.92026 4.40306 5.09663 4.21597C5.27419 4.03126 5.36237 3.87634 5.36237 3.75122C5.36083 3.65921 5.33842 3.56875 5.29683 3.48667C5.23846 3.3714 5.17154 3.26066 5.09663 3.15538C5.044 3.07696 4.98997 2.99949 4.93456 2.92301C4.84161 2.76809 4.74509 2.60126 4.64618 2.42489C4.53593 2.22865 4.42709 2.03162 4.31966 1.83382C4.2289 1.66499 4.13594 1.49735 4.04081 1.33094C3.82274 0.897175 3.65829 0.661225 3.54746 0.624283C3.48473 0.602399 3.4184 0.592692 3.35203 0.595683C3.184 0.595683 2.96474 0.626667 2.69542 0.688633C2.47744 0.734387 2.26405 0.799799 2.05788 0.884067C1.74804 1.01515 1.41795 1.39291 1.06999 2.01972C0.754195 2.60364 0.595703 3.1816 0.595703 3.75122C0.595638 4.09823 0.645811 4.44342 0.744662 4.77605C0.833543 5.10173 0.942186 5.42169 1.06999 5.73415C1.16294 5.98321 1.21894 6.13455 1.23801 6.19056C1.45489 6.79831 1.71229 7.34171 2.01021 7.81957C2.50118 8.61441 3.1697 9.43547 4.01698 10.2827C4.86306 11.1288 5.68531 11.7985 6.47896 12.2883C6.95682 12.5862 7.50022 12.8436 8.10916 13.0617C8.16517 13.0796 8.31651 13.1356 8.56438 13.2285C8.81344 13.3215 8.98504 13.3858 9.08156 13.4192C9.40058 13.5289 9.7277 13.6133 10.0599 13.6718C10.2172 13.6933 10.3805 13.704 10.5485 13.704C11.1193 13.704 11.6961 13.5455 12.28 13.2285C12.9068 12.8818 13.2846 12.5529 13.4157 12.2418C13.4836 12.0869 13.5491 11.8748 13.6111 11.6043C13.6731 11.335 13.704 11.1157 13.704 10.9489C13.7077 10.8822 13.6983 10.8154 13.6766 10.7523Z" fill="#786FC4"/>
</svg>
