<svg width="5" height="22" viewBox="0 0 5 22" fill="none" xmlns="http://www.w3.org/2000/svg">
<g clip-path="url(#clip0_36_10404)">
<path d="M4.80836 11.6297C4.80836 11.6571 4.80151 11.6867 4.78782 11.7187C4.77414 11.7506 4.7536 11.7803 4.72622 11.8077L1.08501 15.4489C1.05764 15.4763 1.02798 15.4968 0.996037 15.5105C0.964097 15.5242 0.934438 15.531 0.907061 15.531C0.870557 15.531 0.836335 15.5242 0.804395 15.5105C0.772454 15.4968 0.747358 15.4763 0.729107 15.4489L0.332133 15.0656C0.313881 15.0382 0.295629 15.0086 0.277378 14.9766C0.259126 14.9447 0.25 14.9104 0.25 14.8739C0.25 14.8466 0.259126 14.8169 0.277378 14.785C0.295629 14.753 0.313881 14.7234 0.332133 14.696L3.4121 11.6297L0.332133 8.54974C0.313881 8.53149 0.295629 8.50411 0.277378 8.46761C0.259126 8.4311 0.25 8.39916 0.25 8.37178C0.25 8.34441 0.259126 8.31247 0.277378 8.27596C0.295629 8.23946 0.313881 8.21208 0.332133 8.19383L0.729107 7.79686C0.747358 7.7786 0.772454 7.76263 0.804395 7.74895C0.836335 7.73526 0.870557 7.72841 0.907061 7.72841C0.934438 7.72841 0.964097 7.73526 0.996037 7.74895C1.02798 7.76263 1.05764 7.7786 1.08501 7.79686L4.72622 11.4518C4.7536 11.47 4.77414 11.4951 4.78782 11.527C4.80151 11.559 4.80836 11.5932 4.80836 11.6297Z" fill="#170F49"/>
</g>
<defs>
<clipPath id="clip0_36_10404">
<rect width="4.75" height="22" fill="white" transform="matrix(1 0 0 -1 0.25 22)"/>
</clipPath>
</defs>
</svg>
