<svg width="45" height="45" viewBox="0 0 45 45" fill="none" xmlns="http://www.w3.org/2000/svg">
<g clip-path="url(#clip0_116_422)">
<path d="M40.4029 17.724C39.681 10.5654 34.9641 2.0774 26.3155 0.355971C25.13 0.119938 23.9021 0 22.6681 0C16.4613 0 10.5259 2.97617 7.17762 7.76679C7.09305 7.88749 7.01079 8.00897 6.92929 8.13275C3.21427 13.7614 3.79551 21.5859 8.25246 25.9452C8.5846 26.2696 8.93749 26.5787 9.28962 26.887C10.1269 27.6189 10.918 28.3109 11.4331 29.2143C12.2781 30.695 12.2873 32.7517 11.4577 34.7168C10.6881 36.539 9.37111 38.0851 8.09715 39.5812C7.9972 39.6989 7.97721 39.8649 8.04641 40.0026C8.1156 40.141 8.26399 40.2232 8.41468 40.214C11.3293 40.031 14.1202 38.4503 16.0715 35.877C18.0221 33.3037 18.7909 30.1899 18.1804 27.3337C18.1489 27.1853 18.0336 27.07 17.8844 27.0384C17.7399 27.0054 17.5838 27.0638 17.4939 27.1868C17.0833 27.7465 16.4713 27.8642 16.0308 27.8642C15.3281 27.8642 14.5554 27.5582 14.0626 27.0846C11.6269 24.7465 11.4554 21.0777 11.57 19.0987C11.7084 16.703 12.5272 14.8701 13.3944 12.9295C13.4206 12.8703 13.4475 12.8111 13.4744 12.7512C13.878 14.7086 15.5026 16.5231 17.1287 17.6925C17.5469 17.9938 17.9805 18.2868 18.4172 18.582C20.2532 19.8214 22.1515 21.1038 22.9134 23.0828C24.0467 26.0259 22.3091 29.2535 20.2632 32.3034C20.1833 32.4218 20.1879 32.5733 20.2548 32.6986C20.3217 32.8239 20.4639 32.9024 20.6061 32.9024C21.5487 32.9024 22.489 32.5502 23.2171 31.9498C23.1594 35.3688 19.5751 38.0712 16.7858 39.8519L10.1538 44.0859C10.0177 44.1727 9.95005 44.3342 9.98465 44.4918C10.0185 44.6494 10.1469 44.7678 10.3068 44.7909C11.2971 44.93 12.3135 45.0008 13.3275 45.0008C20.6661 45.0008 28.4859 41.2973 34.7835 34.8391C38.8898 30.6251 41.0433 24.0669 40.4029 17.724Z" fill="#E0007E"/>
</g>
<defs>
<clipPath id="clip0_116_422">
<rect width="45" height="45" fill="white"/>
</clipPath>
</defs>
</svg>
