<svg width="39" height="39" viewBox="0 0 39 39" fill="none" xmlns="http://www.w3.org/2000/svg">
<g clip-path="url(#clip0_116_419)">
<path d="M11.0297 1.29495C10.1689 -0.060914 8.19609 -0.441773 6.91641 0.57893C2.68887 3.95334 0 8.9883 0 14.625H19.5L11.0297 1.29495ZM37.7812 7.31252H34.125C31.4361 7.31252 29.25 9.49866 29.25 12.1875V17.0625H0C0 20.9168 1.75195 24.4055 4.59316 27.0182C1.95762 27.6961 0 30.0651 0 32.9063C0 36.2731 2.72695 39 6.09375 39C9.46055 39 12.1875 36.2731 12.1875 32.9063C12.1875 32.2283 12.0504 31.5961 11.8523 30.9867C13.4977 31.4362 15.2496 31.6875 17.0625 31.6875C18.8754 31.6875 20.635 31.4362 22.2727 30.9867C22.067 31.5961 21.9375 32.2283 21.9375 32.9063C21.9375 36.2731 24.6645 39 28.0312 39C31.398 39 34.125 36.2731 34.125 32.9063C34.125 30.0651 32.1674 27.6961 29.5318 27.0182C32.373 24.4055 34.125 20.9168 34.125 17.0625V12.1875H37.7812C38.4516 12.1875 39 11.6391 39 10.9688V8.53127C39 7.86096 38.4516 7.31252 37.7812 7.31252ZM6.09375 35.3438C4.75313 35.3438 3.65625 34.2469 3.65625 32.9063C3.65625 31.5656 4.75313 30.4688 6.09375 30.4688C7.43437 30.4688 8.53125 31.5656 8.53125 32.9063C8.53125 34.2469 7.43437 35.3438 6.09375 35.3438ZM30.4688 32.9063C30.4688 34.2469 29.3719 35.3438 28.0312 35.3438C26.6906 35.3438 25.5938 34.2469 25.5938 32.9063C25.5938 31.5656 26.6906 30.4688 28.0312 30.4688C29.3719 30.4688 30.4688 31.5656 30.4688 32.9063Z" fill="#FF76C2"/>
</g>
<defs>
<clipPath id="clip0_116_419">
<rect width="39" height="39" fill="white"/>
</clipPath>
</defs>
</svg>
