<svg width="44" height="39" viewBox="0 0 44 39" fill="none" xmlns="http://www.w3.org/2000/svg">
<path fill-rule="evenodd" clip-rule="evenodd" d="M15.0837 35.4699C8.70876 30.2714 0 21.6838 0 13.5643C0 0.757249 11.917 -5.06429 21.6667 5.414C31.4162 -5.06429 43.3333 0.756838 43.3333 13.5642C43.3333 21.684 34.6246 30.2714 28.2496 35.4699C25.3636 37.8233 23.9206 39 21.6667 39C19.4127 39 17.9697 37.8233 15.0837 35.4699ZM17.5353 16.7836C17.7292 16.5065 17.8904 16.2764 18.0338 16.0795C18.1551 16.2907 18.2906 16.5369 18.4535 16.8333L22.1591 23.5705C22.5188 24.2251 22.8718 24.8671 23.226 25.3329C23.6052 25.8312 24.2716 26.5144 25.34 26.5343C26.4082 26.5545 27.1 25.8969 27.4976 25.4131C27.8692 24.9609 28.2457 24.3328 28.6299 23.6923L28.7499 23.4921C29.2283 22.6947 29.5295 22.1962 29.796 21.8361C30.0417 21.5044 30.1836 21.3961 30.2896 21.3363C30.3953 21.2762 30.5613 21.2104 30.9721 21.1703C31.418 21.127 32.0004 21.1252 32.9303 21.1252H34.6667C35.5641 21.1252 36.2917 20.3977 36.2917 19.5002C36.2917 18.6028 35.5641 17.8752 34.6667 17.8752H32.8601C32.0214 17.8752 31.2795 17.8752 30.6577 17.9357C29.9834 18.0011 29.3273 18.1461 28.6882 18.5081C28.049 18.8699 27.5871 19.3579 27.1841 19.9024C26.8123 20.4044 26.4307 21.0405 25.9991 21.7598L25.8962 21.9314C25.7084 22.2447 25.5515 22.5056 25.4115 22.7296C25.2798 22.5006 25.1331 22.2339 24.957 21.9139L21.2533 15.1797C20.9194 14.5721 20.5866 13.9669 20.2492 13.5232C19.8805 13.0385 19.2484 12.3975 18.2355 12.3429C17.2225 12.2882 16.5251 12.8573 16.1064 13.2995C15.7231 13.7043 15.3272 14.2702 14.9298 14.8382L14.2595 15.7959C13.7673 16.4989 13.4588 16.9371 13.1917 17.253C12.9458 17.5437 12.8092 17.6391 12.7083 17.6915C12.6074 17.7441 12.451 17.8013 12.0718 17.836C11.6598 17.8737 11.1239 17.8752 10.2657 17.8752H8.66667C7.76921 17.8752 7.04167 18.6028 7.04167 19.5002C7.04167 20.3977 7.76921 21.1252 8.66667 21.1252H10.3309C11.1044 21.1252 11.79 21.1252 12.3674 21.0726C12.9937 21.0154 13.6046 20.8891 14.2092 20.5742C14.8138 20.2594 15.2677 19.8315 15.6737 19.3512C16.048 18.9083 16.4411 18.3467 16.8846 17.7129L17.5353 16.7836Z" fill="#E40438"/>
</svg>
