<svg width="44" height="32" viewBox="0 0 44 32" fill="none" xmlns="http://www.w3.org/2000/svg">
<path d="M21.5474 31.5761L22.5974 24.3714C23.5308 17.9634 29.4825 12.0124 35.8898 11.079L43.0945 10.0289L42.0444 17.2336C41.1111 23.6416 35.1593 29.5926 28.752 30.526L21.5474 31.5761Z" fill="#189697"/>
<path d="M21.5471 31.5761L14.3425 30.526C7.93443 29.5927 1.98342 23.6409 1.05005 17.2336L0 10.0282L7.20467 11.0782C13.6127 12.0116 19.5637 17.9634 20.4971 24.3707L21.5471 31.5761Z" fill="#189697"/>
<path d="M21.5478 30.8507L21.417 30.6738L21.4913 31.1873L21.5463 31.2111L21.5478 31.1962L21.55 31.2111L21.605 31.1873L21.6793 30.6738L21.5478 30.8507Z" fill="#189697"/>
<path d="M15.546 9.16016C14.7426 8.58052 13.891 8.0841 12.997 7.6999L6.12006 4.49329L5.56494 10.8389L7.20504 11.0782C9.75398 11.4498 12.2249 12.6239 14.3421 14.296C14.4736 12.5147 14.8801 10.7668 15.546 9.16016Z" fill="#189697"/>
<path d="M36.9752 4.49329L30.0983 7.6999C29.2043 8.08485 28.3526 8.58052 27.5493 9.16016C28.2159 10.7668 28.6217 12.5147 28.7532 14.296C30.8704 12.6239 33.3413 11.449 35.8902 11.0782L37.5303 10.8389L36.9752 4.49329Z" fill="#189697"/>
<path d="M20.4984 24.3714L21.4169 30.6747L21.5484 30.8508L21.68 30.6747L22.5985 24.3714C23.161 20.5131 25.5487 16.8286 28.7539 14.2968C28.5361 11.3465 27.5857 8.47506 25.901 6.2152L21.5477 -0.000366211L17.1952 6.2152C15.5097 8.47506 14.56 11.3465 14.3423 14.2968C17.5482 16.8279 19.9358 20.5123 20.4984 24.3714Z" fill="#189697"/>
</svg>
