<svg width="36" height="36" viewBox="0 0 36 36" fill="none" xmlns="http://www.w3.org/2000/svg">
<path d="M35.3582 17.6791C35.3582 27.443 27.443 35.3582 17.6791 35.3582C7.91521 35.3582 0 27.443 0 17.6791C0 7.91521 7.91521 0 17.6791 0C27.443 0 35.3582 7.91521 35.3582 17.6791ZM3.22536 17.6791C3.22536 25.6617 9.69653 32.1329 17.6791 32.1329C25.6617 32.1329 32.1329 25.6617 32.1329 17.6791C32.1329 9.69653 25.6617 3.22536 17.6791 3.22536C9.69653 3.22536 3.22536 9.69653 3.22536 17.6791Z" fill="#170F49"/>
<path d="M17.6795 9.00026C16.7918 9.00026 16.0723 9.71982 16.0723 10.6075V21.0007C16.0723 21.0007 16.0723 21.4197 16.2759 21.7348C16.4122 22.0021 16.6247 22.2344 16.9038 22.3956L24.3287 26.6824C25.0975 27.1262 26.0804 26.8628 26.5242 26.094C26.9679 25.3253 26.7046 24.3424 25.9359 23.8986L19.2866 20.0597V10.6075C19.2866 9.71983 18.5671 9.00026 17.6795 9.00026Z" fill="#170F49"/>
</svg>
