<svg width="37" height="37" viewBox="0 0 37 37" fill="none" xmlns="http://www.w3.org/2000/svg">
<path d="M2.4409 20.5692C1.85303 19.3393 1.85303 17.9094 2.4409 16.6795C2.69508 16.1477 3.12851 15.6391 3.99538 14.6219C4.34039 14.2171 4.51291 14.0146 4.65781 13.7984C4.98998 13.3029 5.22051 12.7463 5.33605 12.161C5.38648 11.9057 5.40762 11.6405 5.44994 11.1103C5.55625 9.77805 5.60941 9.11193 5.8057 8.55617C6.25971 7.27077 7.27078 6.25973 8.55618 5.8057C9.11191 5.60941 9.77806 5.55624 11.1103 5.44993C11.6406 5.40763 11.9057 5.38647 12.161 5.33605C12.7463 5.2205 13.3029 4.98997 13.7984 4.6578C14.0146 4.51291 14.2171 4.34039 14.6219 3.99538C15.6391 3.1285 16.1477 2.69508 16.6795 2.44091C17.9095 1.85303 19.3393 1.85303 20.5693 2.44091C21.1011 2.69508 21.6096 3.1285 22.6269 3.99538C23.0317 4.34039 23.2341 4.51291 23.4504 4.6578C23.946 4.98997 24.5025 5.2205 25.0877 5.33605C25.3432 5.38647 25.6082 5.40763 26.1385 5.44993C27.4708 5.55624 28.1368 5.60941 28.6926 5.8057C29.978 6.25973 30.9891 7.27077 31.4432 8.55617M5.8057 28.6926C6.25971 29.978 7.27078 30.9891 8.55618 31.4432C9.11191 31.6394 9.77806 31.6925 11.1103 31.7989C11.6406 31.8411 11.9057 31.8624 12.161 31.9127C12.7463 32.0284 13.3029 32.2587 13.7984 32.591C14.0146 32.7359 14.2171 32.9084 14.6219 33.2535C15.6391 34.1203 16.1477 34.5538 16.6795 34.808C17.9095 35.3957 19.3393 35.3957 20.5693 34.808C21.1011 34.5538 21.6096 34.1203 22.6269 33.2535C23.0317 32.9084 23.2341 32.7359 23.4504 32.591C23.946 32.2587 24.5025 32.0284 25.0877 31.9127C25.3432 31.8624 25.6082 31.8411 26.1385 31.7989C27.4708 31.6925 28.1368 31.6394 28.6926 31.4432C29.978 30.9891 30.9891 29.978 31.4432 28.6926C31.6395 28.1368 31.6925 27.4708 31.7989 26.1385C31.8411 25.6083 31.8622 25.3431 31.9128 25.0879C32.0282 24.5025 32.2588 23.9459 32.5911 23.4504C32.7359 23.2341 32.9084 23.0317 33.2535 22.6269C34.1203 21.6096 34.5538 21.1011 34.808 20.5692C35.3957 19.3393 35.3957 17.9094 34.808 16.6795" stroke="#170F49" stroke-width="3" stroke-linecap="round"/>
<path d="M13.2129 24.0372L24.0368 13.2133" stroke="#170F49" stroke-width="3" stroke-linecap="round"/>
<path d="M24.9385 23.1352C24.9385 24.1316 24.1309 24.9392 23.1346 24.9392C22.1382 24.9392 21.3306 24.1316 21.3306 23.1352C21.3306 22.1389 22.1382 21.3312 23.1346 21.3312C24.1309 21.3312 24.9385 22.1389 24.9385 23.1352Z" fill="#170F49"/>
<path d="M15.919 14.1153C15.919 15.1116 15.1114 15.9192 14.115 15.9192C13.1187 15.9192 12.311 15.1116 12.311 14.1153C12.311 13.1189 13.1187 12.3113 14.115 12.3113C15.1114 12.3113 15.919 13.1189 15.919 14.1153Z" fill="#170F49"/>
</svg>
