<svg width="49" height="36" viewBox="0 0 49 36" fill="none" xmlns="http://www.w3.org/2000/svg">
<path d="M47.2906 14.7958L47.2781 14.7842L47.2882 14.7942C47.0706 14.5727 46.8266 14.3722 46.5578 14.1936C46.4652 14.1928 46.372 14.1742 46.2827 14.1353C46.1382 14.0739 46.0255 13.9705 45.9485 13.847C45.5188 13.6427 45.0689 13.5113 44.6128 13.4468C44.2141 13.3917 43.9391 13.0241 43.995 12.6262C44.0501 12.2291 44.4178 11.9525 44.814 12.0076C45.2686 12.0722 45.7202 12.1887 46.1577 12.3573C46.2268 12.0403 46.2657 11.717 46.2657 11.3891C46.2649 10.6741 46.0971 9.95138 45.7388 9.27301V9.27225C45.3293 8.49518 44.7325 7.88985 44.03 7.4741C43.4153 7.11041 42.7222 6.89508 42.0088 6.84769C41.9567 7.49424 41.8021 8.14317 41.5317 8.7695C41.3731 9.13785 40.9458 9.30872 40.5766 9.15019C40.2083 8.99166 40.0374 8.56433 40.1959 8.19513C40.4547 7.59217 40.5766 6.96888 40.5782 6.35272C40.5782 6.2641 40.5743 6.17634 40.5704 6.08848C40.5223 5.23533 40.2378 4.40926 39.756 3.70751C39.2734 3.00501 38.5982 2.42836 37.7566 2.06638C37.1537 1.80603 36.5289 1.68397 35.9134 1.68397C34.7345 1.68397 33.5922 2.13781 32.7311 2.9389C32.8928 3.48753 32.9822 4.06722 32.9822 4.66714C32.9822 5.06806 32.6566 5.39291 32.2555 5.39291C31.8538 5.39291 31.5282 5.06806 31.5282 4.66714C31.5282 4.07814 31.4198 3.52011 31.2223 3.00112L31.2227 3.00178C30.8878 2.12527 30.2944 1.37375 29.5364 0.842319C28.7787 0.310788 27.8615 0 26.8641 0C25.9961 0 25.1886 0.234611 24.4944 0.644942C23.9391 0.972827 23.4593 1.41507 23.0831 1.93568C23.8186 2.94517 24.2527 4.19155 24.2523 5.53434C24.2523 5.93536 23.9271 6.26011 23.5256 6.26011C23.1235 6.26011 22.7983 5.93527 22.7983 5.53434C22.7979 4.35312 22.3634 3.27923 21.6424 2.45857L21.6413 2.45781C20.7837 1.48023 19.5326 0.867965 18.132 0.86711C17.1587 0.86787 16.2612 1.16241 15.5132 1.66991C14.7664 2.17732 14.1731 2.89616 13.8215 3.73924C13.5934 4.29024 13.4652 4.89795 13.4652 5.53434C13.4652 5.93536 13.1404 6.26011 12.7386 6.26011C12.3372 6.26011 12.0117 5.93527 12.0117 5.53434C12.0117 4.94449 12.0975 4.37335 12.2529 3.83251C11.7055 3.61025 11.1137 3.48895 10.5045 3.48895C10.1599 3.48895 9.80938 3.52856 9.45851 3.60863C8.42385 3.84647 7.55541 4.40593 6.92367 5.16048C6.46718 5.70522 6.13996 6.35177 5.96899 7.04801C7.4723 7.07603 8.97362 7.65572 10.1311 8.78944C10.4178 9.06993 10.4229 9.52994 10.1419 9.8167C9.86143 10.1034 9.40105 10.1081 9.11419 9.82829C8.20463 8.93857 7.02929 8.49642 5.84969 8.4949C5.63835 8.4949 5.42767 8.51048 5.21861 8.53764L5.21595 8.5384H5.21481H5.21405C4.22356 8.67366 3.27135 9.12436 2.51442 9.89515C1.62423 10.8051 1.18322 11.9778 1.18293 13.1581C1.18293 13.835 1.3294 14.5126 1.62157 15.1374C1.852 15.6301 2.1721 16.0901 2.58395 16.4942L2.58471 16.4949C3.05298 16.9549 3.5922 17.293 4.16686 17.516C4.541 17.6597 4.72707 18.081 4.58213 18.4555C4.43718 18.83 4.0164 19.0166 3.64226 18.8712C2.88922 18.5806 2.17855 18.1338 1.56591 17.5323C1.29739 17.2681 1.05727 16.9852 0.846688 16.6877C0.2973 17.4744 0 18.4155 0 19.3729C0.000379936 20.115 0.17724 20.8649 0.552522 21.5681C0.974441 22.3561 1.58519 22.97 2.30251 23.3904C2.87089 23.7238 3.50539 23.9312 4.15859 24.0043L4.15736 23.9623C4.15736 23.5776 4.19317 23.1999 4.2607 22.8347C4.33374 22.44 4.71301 22.1796 5.10739 22.2518C5.50252 22.3242 5.76325 22.7049 5.69059 23.0996C5.63854 23.3794 5.6109 23.6677 5.6109 23.9622C5.6109 24.0741 5.61517 24.186 5.62296 24.2979C5.63151 24.4168 5.64395 24.5302 5.6619 24.6383L5.66266 24.6437L5.66342 24.6491C5.99606 26.9314 7.96631 28.6341 10.2746 28.6341C10.385 28.6341 10.4969 28.6293 10.6092 28.6215H10.6104C11.6338 28.5477 12.5527 28.1522 13.2801 27.5383C13.7938 27.1047 14.211 26.5647 14.4989 25.9553C14.6703 25.5925 15.1039 25.4371 15.4668 25.6088C15.8297 25.7806 15.9847 26.2134 15.8133 26.5763C15.5036 27.2314 15.0798 27.822 14.5681 28.3271C14.854 29.2037 15.3906 29.9598 16.09 30.5201C16.8939 31.1627 17.9048 31.5404 18.9959 31.5404C19.1062 31.5404 19.2173 31.5373 19.3308 31.5287H19.3319C20.0243 31.4783 20.6646 31.2808 21.2323 30.9708C21.1429 30.5519 21.0935 30.1237 21.0935 29.6917C21.0935 28.7996 21.2905 27.892 21.7032 27.0371C21.8772 26.6743 22.312 26.5234 22.6734 26.6976C23.0347 26.8717 23.187 27.306 23.0125 27.6674C22.6962 28.3249 22.547 29.0125 22.547 29.6917C22.547 30.1681 22.6209 30.6404 22.7626 31.0912L22.763 31.092C23.1353 32.2794 23.9768 33.3144 25.1882 33.898C25.843 34.2142 26.5307 34.3634 27.2103 34.3634C28.2873 34.3634 29.3418 33.9865 30.1752 33.3027L30.1779 33.3012C30.685 32.8832 31.1116 32.3547 31.4162 31.7237L31.4169 31.7213C31.7021 31.1315 31.8505 30.513 31.8777 29.8959C31.8955 29.495 32.2351 29.1841 32.6369 29.2012C33.0371 29.2199 33.3479 29.5588 33.3308 29.9598C33.2943 30.7679 33.0992 31.5838 32.7254 32.3547L32.7262 32.3539C32.4255 32.9771 32.0322 33.5265 31.5706 33.9943C32.4277 35.2267 33.8537 36.0008 35.3954 36C35.6821 36 35.9728 35.9727 36.2665 35.9184C37.3879 35.7062 38.3343 35.1141 39.0073 34.2958C39.6796 33.4776 40.0704 32.4377 40.0704 31.3397C40.0704 31.3055 40.0696 31.2722 40.0687 31.2403V31.2357C40.0648 30.987 40.0384 30.7291 39.9887 30.4695C39.8729 29.8517 39.6367 29.2914 39.3143 28.794C38.8449 28.3799 38.3211 27.8406 37.8293 27.2391C37.3063 26.5981 36.8214 25.898 36.4966 25.1916C36.2829 24.7184 36.1305 24.2419 36.1275 23.7377C36.1275 23.5146 36.1609 23.2838 36.2425 23.0608C36.3248 22.8378 36.4585 22.6233 36.6357 22.4477V22.4484C36.9193 22.1641 37.3794 22.1641 37.6631 22.4484C37.9467 22.7313 37.9467 23.1929 37.6631 23.4757C37.6351 23.5052 37.6211 23.527 37.6071 23.5635C37.5932 23.6009 37.5815 23.6561 37.5815 23.7376C37.5784 23.9201 37.6539 24.2311 37.8186 24.5861C37.981 24.9413 38.2226 25.3399 38.5063 25.7339C39.0697 26.5234 39.8009 27.299 40.3511 27.7699L40.4258 27.8344L40.481 27.9151C40.9317 28.5857 41.2596 29.3574 41.4181 30.2006V30.2013C41.4407 30.3218 41.4554 30.4413 41.4709 30.5626C41.5424 30.5658 41.6155 30.5719 41.6885 30.5719C42.6109 30.5712 43.5379 30.2985 44.3539 29.7249C45.0028 29.2695 45.4962 28.6829 45.8311 28.0247C46.166 27.3657 46.3402 26.636 46.3394 25.9018C46.3394 25.214 46.1855 24.5248 45.8747 23.8821C45.5895 23.9746 45.2989 24.0477 45.0028 24.0989C44.6073 24.1674 44.2311 23.9015 44.162 23.5052C44.0951 23.1097 44.3609 22.7344 44.7564 22.666C46.0441 22.4438 47.2213 21.6947 47.9518 20.491C48.4134 19.7333 48.631 18.8995 48.6318 18.0735C48.6318 16.8629 48.1601 15.6755 47.2906 14.7958ZM13.9805 9.24746C14.676 8.4268 15.5984 7.84321 16.5892 7.46166C17.5819 7.08011 18.6484 6.89594 19.6703 6.89594C20.6654 6.8967 21.6196 7.06843 22.4321 7.44143C22.7962 7.60936 22.9555 8.04135 22.7875 8.4059C22.6189 8.77102 22.1869 8.92964 21.8225 8.76171C21.2603 8.49984 20.4937 8.34834 19.6703 8.3491C18.8249 8.3491 17.9211 8.50601 17.1118 8.81841C16.3009 9.1292 15.5898 9.59472 15.0898 10.1861V10.1868C14.8311 10.4922 14.3722 10.5312 14.0656 10.2716C13.7594 10.0121 13.721 9.55359 13.9805 9.24746ZM30.5265 26.435C29.6818 26.4365 28.9146 26.341 28.214 26.1786C28.2333 26.3783 28.2465 26.5997 28.2465 26.8368C28.2465 27.3115 28.196 27.8531 28.0457 28.4221C27.8958 28.9901 27.6443 29.5869 27.2476 30.1604C27.0192 30.4899 26.5666 30.5722 26.2358 30.3438C25.906 30.1154 25.8236 29.663 26.0525 29.332C26.3439 28.9109 26.5273 28.4764 26.6403 28.0507C26.7529 27.6248 26.793 27.2084 26.793 26.8369C26.7934 26.3247 26.7164 25.8997 26.6609 25.6603C26.3062 25.4995 25.9763 25.3177 25.6717 25.1187C24.4552 24.3292 23.6408 23.2895 23.1283 22.2986C22.786 21.6374 22.5753 20.9955 22.4647 20.439C22.4009 20.122 22.3695 19.8321 22.3695 19.5703C22.3695 19.1685 22.6946 18.843 23.0968 18.843C23.4982 18.843 23.8234 19.1685 23.8234 19.5703C23.8222 19.7833 23.8677 20.136 23.9831 20.5371C24.0976 20.9404 24.2807 21.3996 24.5453 21.8611C25.0757 22.7859 25.9188 23.7137 27.2181 24.316C28.0864 24.7186 29.1669 24.9804 30.5265 24.9812C30.9279 24.9812 31.2536 25.3068 31.2536 25.7077C31.2536 26.1094 30.9279 26.435 30.5265 26.435ZM35.6445 21.1267C35.4945 21.499 35.0717 21.6808 34.6987 21.5308C34.3273 21.3824 34.1463 20.962 34.293 20.5889V20.5882L34.2978 20.5773C34.3023 20.5648 34.3094 20.5431 34.3194 20.5136C34.3389 20.4561 34.3661 20.3644 34.3933 20.2509C34.4493 20.0216 34.5045 19.6976 34.5045 19.3417L34.5021 19.2896C33.5067 19.6285 32.5789 19.7831 31.7252 19.7831C30.4353 19.7847 29.3202 19.4311 28.4117 18.8941C27.5018 18.3572 26.7946 17.6461 26.2662 16.9258C25.6655 16.106 24.8768 15.3723 23.9743 14.8517C23.0705 14.331 22.0587 14.0218 20.984 14.0211C20.0406 14.0234 19.0409 14.2581 17.9945 14.8308C17.0034 15.3763 16.3635 16.1021 15.9511 16.8979C15.5413 17.6929 15.3699 18.5647 15.3703 19.3566C15.3683 20.0909 15.5223 20.7546 15.7242 21.175C15.896 21.5387 15.7409 21.9715 15.378 22.144C15.0156 22.315 14.5819 22.1611 14.4097 21.7975C14.0951 21.1269 13.9186 20.2845 13.9167 19.3567C13.9171 18.4358 14.1005 17.4303 14.5478 16.4675C13.6466 16.6719 12.8094 16.7628 12.0451 16.7619C11.6329 16.7627 11.2448 16.734 10.8748 16.6889C10.8492 16.7852 10.8045 16.8785 10.7373 16.9602L10.7369 16.9608H10.7361L10.7276 16.9718C10.7198 16.9827 10.7062 16.9998 10.6884 17.0223C10.6529 17.0689 10.6001 17.1412 10.5337 17.2352C10.4016 17.4224 10.2179 17.7007 10.0193 18.0511C9.62141 18.7506 9.16957 19.7351 8.94845 20.8424C8.87037 21.2364 8.48692 21.4921 8.09331 21.4128C7.69969 21.3343 7.44447 20.952 7.52331 20.5572C7.78679 19.2423 8.30427 18.1273 8.75458 17.3338C8.98882 16.9211 9.20405 16.5971 9.36153 16.3749C8.76864 16.197 8.25535 15.9794 7.83694 15.7579C6.88026 15.2496 6.38027 14.7391 6.33981 14.6979C6.06122 14.4088 6.06986 13.9489 6.35852 13.6707C6.64679 13.3925 7.10528 13.401 7.3834 13.687L7.38415 13.6863L7.39118 13.6933L7.43592 13.736C7.47866 13.7749 7.54819 13.8347 7.64299 13.9094C7.83257 14.0593 8.1256 14.2652 8.51722 14.472C9.3016 14.8869 10.4743 15.3073 12.0451 15.309C13.1479 15.309 14.4511 15.0983 15.9632 14.5171C16.347 14.1604 16.7877 13.834 17.2958 13.5566C18.5388 12.8736 19.7934 12.5673 20.9839 12.5682C22.3415 12.5682 23.6066 12.9622 24.7003 13.5932C25.7952 14.2257 26.7242 15.093 27.4383 16.0658C27.8715 16.6564 28.4431 17.2259 29.1495 17.6418C29.8578 18.0575 30.6982 18.3287 31.7251 18.3295C32.4272 18.3295 33.2213 18.1998 34.1173 17.885C33.9006 17.5322 33.5733 17.1926 33.0364 16.8865C32.6868 16.6891 32.5639 16.2446 32.7613 15.8957C32.9588 15.5459 33.4025 15.4231 33.7514 15.6198C34.6116 16.1047 35.1875 16.7465 35.5208 17.4165C35.8573 18.0863 35.9583 18.7647 35.9583 19.3421C35.9553 20.3488 35.6631 21.0747 35.6445 21.1267ZM35.3724 12.2206C33.6737 12.2213 32.1879 11.7628 30.9858 11.0689C30.8176 11.3051 30.5899 11.5989 30.2973 11.9214C29.6399 12.6425 28.6725 13.4903 27.379 13.955C27.0009 14.0902 26.5852 13.8928 26.4499 13.5144C26.3151 13.136 26.512 12.7209 26.8901 12.5858C27.8432 12.2477 28.6412 11.5779 29.1953 10.9726C29.4507 10.696 29.6503 10.4364 29.7953 10.2343C29.0765 9.62825 28.5111 8.93819 28.1241 8.22951C27.7541 7.54724 27.5405 6.84626 27.5385 6.16247C27.5385 5.76154 27.8638 5.4367 28.2651 5.4367C28.6665 5.4367 28.9921 5.76154 28.9921 6.16247C28.9902 6.53006 29.1192 7.02037 29.4004 7.53404C29.6805 8.04923 30.106 8.58694 30.6601 9.06718C31.7697 10.0292 33.3745 10.7666 35.3723 10.7666C35.7734 10.7666 36.099 11.0922 36.099 11.4939C36.0991 11.8958 35.7735 12.2206 35.3724 12.2206ZM41.1026 22.4563C40.8463 22.7656 40.3878 22.8091 40.0784 22.5535C39.7693 22.2978 39.7257 21.8393 39.9813 21.53C40.7724 20.5665 41.0661 19.5982 41.0685 18.6696C41.0701 17.8249 40.8128 17.0082 40.4072 16.3221C40.0039 15.6343 39.4507 15.0857 38.9176 14.7803C38.5625 14.5744 38.2244 14.4803 37.9571 14.4811C37.5553 14.4811 37.2298 14.1562 37.2298 13.7544C37.2298 13.3535 37.5554 13.0279 37.9571 13.0279C38.4001 13.0279 38.832 13.136 39.2424 13.317C39.6519 13.4972 40.0404 13.7514 40.401 14.0622C41.1198 14.6839 41.7313 15.5316 42.1144 16.524C42.3701 17.1854 42.5232 17.9111 42.5232 18.6695C42.5255 19.9176 42.0997 21.2526 41.1026 22.4563Z" fill="#37A935"/>
</svg>
