<svg width="37" height="36" viewBox="0 0 37 36" fill="none" xmlns="http://www.w3.org/2000/svg">
<path d="M34.0384 16.0009H32.5231C28.9596 16.0009 27.1743 11.6927 29.6944 9.17262L30.7653 8.10032C31.1184 7.72117 31.3105 7.21978 31.3013 6.70175C31.2921 6.18373 31.0821 5.68951 30.7157 5.32319C30.3493 4.95688 29.8551 4.74707 29.337 4.73796C28.819 4.72885 28.3177 4.92115 27.9386 5.27435L26.867 6.34454C24.3469 8.86394 20.0387 7.07934 20.0387 3.51576V2.00047C20.0387 1.46991 19.8279 0.961084 19.4528 0.585924C19.0776 0.210763 18.5688 0 18.0382 0C17.5077 0 16.9988 0.210763 16.6237 0.585924C16.2485 0.961084 16.0377 1.46991 16.0377 2.00047V3.51647C16.0377 7.08004 11.7295 8.86464 9.20942 6.34525L8.13782 5.27435C7.75876 4.92115 7.25742 4.72885 6.73939 4.73796C6.22136 4.74707 5.72709 4.95688 5.36069 5.32319C4.99428 5.68951 4.78435 6.18373 4.77511 6.70175C4.76587 7.21978 4.95804 7.72117 5.31115 8.10032L6.38345 9.17262C8.90355 11.6927 7.11825 16.0009 3.55467 16.0009H2.03797C1.77216 15.996 1.50802 16.044 1.26099 16.1423C1.01396 16.2406 0.788992 16.3871 0.599246 16.5733C0.409499 16.7595 0.258776 16.9817 0.155885 17.2269C0.0529942 17.472 0 17.7352 0 18.0011C0 18.2669 0.0529942 18.5301 0.155885 18.7753C0.258776 19.0204 0.409499 19.2426 0.599246 19.4288C0.788992 19.615 1.01396 19.7616 1.26099 19.8598C1.50802 19.9581 1.77216 20.0062 2.03797 20.0012H3.55327C7.11684 20.0012 8.90215 24.3101 6.38205 26.8302L5.31115 27.9018C4.96151 28.2816 4.77223 28.7819 4.7829 29.298C4.79357 29.8141 5.00336 30.3062 5.3684 30.6712C5.73344 31.0362 6.22546 31.246 6.7416 31.2567C7.25773 31.2674 7.75801 31.0781 8.13782 30.7285L9.20942 29.6562C11.7295 27.1361 16.0377 28.9214 16.0377 32.4849V33.9995C16.0377 34.5301 16.2485 35.0389 16.6237 35.4141C16.9988 35.7892 17.5077 36 18.0382 36C18.5688 36 19.0776 35.7892 19.4528 35.4141C19.8279 35.0389 20.0387 34.5301 20.0387 33.9995V32.4863C20.0387 28.9228 24.3469 27.1375 26.867 29.6576L27.9386 30.7285C28.3184 31.0781 28.8187 31.2674 29.3348 31.2567C29.851 31.246 30.343 31.0362 30.708 30.6712C31.0731 30.3062 31.2828 29.8141 31.2935 29.298C31.3042 28.7819 31.1149 28.2816 30.7653 27.9018L29.693 26.8302C27.1729 24.3101 28.9582 20.0012 32.5217 20.0012H34.0363C34.3021 20.0062 34.5663 19.9581 34.8133 19.8598C35.0603 19.7616 35.2853 19.615 35.4751 19.4288C35.6648 19.2426 35.8155 19.0204 35.9184 18.7753C36.0213 18.5301 36.0743 18.2669 36.0743 18.0011C36.0743 17.7352 36.0213 17.472 35.9184 17.2269C35.8155 16.9817 35.6648 16.7595 35.4751 16.5733C35.2853 16.3871 35.0603 16.2406 34.8133 16.1423C34.5663 16.044 34.3021 15.996 34.0363 16.0009H34.0384ZM15.7881 19.1264C15.1206 19.1264 14.468 18.9285 13.913 18.5576C13.358 18.1868 12.9254 17.6596 12.6699 17.0429C12.4144 16.4262 12.3476 15.7476 12.4778 15.0929C12.6081 14.4382 12.9295 13.8368 13.4015 13.3647C13.8736 12.8927 14.475 12.5713 15.1297 12.441C15.7844 12.3108 16.463 12.3776 17.0797 12.6331C17.6965 12.8886 18.2236 13.3212 18.5944 13.8762C18.9653 14.4312 19.1632 15.0838 19.1632 15.7513C19.1632 16.6465 18.8077 17.5049 18.1747 18.1379C17.5417 18.7709 16.6833 19.1264 15.7881 19.1264ZM21.4133 23.0641C21.0796 23.0641 20.7533 22.9651 20.4758 22.7797C20.1983 22.5943 19.982 22.3307 19.8542 22.0223C19.7265 21.714 19.6931 21.3747 19.7582 21.0473C19.8233 20.72 19.984 20.4193 20.2201 20.1832C20.4561 19.9472 20.7568 19.7865 21.0841 19.7214C21.4115 19.6563 21.7508 19.6897 22.0591 19.8174C22.3675 19.9452 22.6311 20.1615 22.8165 20.439C23.0019 20.7165 23.1009 21.0428 23.1009 21.3765C23.1009 21.8241 22.9231 22.2533 22.6066 22.5698C22.2901 22.8863 21.8609 23.0641 21.4133 23.0641Z" fill="#EA5D0B"/>
</svg>
