<svg width="32" height="38" viewBox="0 0 32 38" fill="none" xmlns="http://www.w3.org/2000/svg">
<path d="M15.722 9.00317C15.4533 9.00317 15.3189 9.00317 15.0501 8.8688C14.2439 8.73442 13.572 8.19692 13.1689 7.39067C12.7658 6.7188 13.0345 5.91255 13.7064 5.50942C14.3783 5.37505 15.1845 5.50942 15.5876 6.1813C15.5876 6.31567 15.722 6.31567 15.722 6.31567C15.8564 6.31567 15.8564 6.31567 15.9908 6.31567C16.3939 6.04692 16.5283 5.37505 16.2595 4.97192C15.9908 4.5688 15.722 4.30005 15.3189 4.30005C14.5126 4.30005 13.9751 3.62817 13.9751 2.9563C13.9751 2.15005 14.647 1.61255 15.3189 1.61255C16.6626 1.61255 17.872 2.4188 18.5439 3.62817C19.4845 5.24067 18.947 7.52505 17.3345 8.60005C16.9314 8.8688 16.2595 9.00317 15.722 9.00317Z" fill="#DC0B7F"/>
<path d="M13.0347 17.4688C12.2284 17.4688 11.6909 16.9313 11.6909 16.125V14.7812C11.6909 13.975 12.2284 13.4375 13.0347 13.4375C13.8409 13.4375 14.3784 13.975 14.3784 14.7812V16.125C14.3784 16.9313 13.8409 17.4688 13.0347 17.4688Z" fill="#DC0B7F"/>
<path d="M18.4097 17.4688C17.6034 17.4688 17.0659 16.9313 17.0659 16.125V14.7812C17.0659 13.975 17.6034 13.4375 18.4097 13.4375C19.2159 13.4375 19.7534 13.975 19.7534 14.7812V16.125C19.7534 16.9313 19.2159 17.4688 18.4097 17.4688Z" fill="#DC0B7F"/>
<path d="M23.5156 27.95C25.6656 27.95 27.95 27.8156 29.9656 27.4125C31.9812 21.6344 31.9813 15.3187 29.8313 9.675C27.5469 3.89687 21.9031 0 15.7219 0C9.54062 0 3.89687 3.89687 1.74687 9.675C0.671875 12.6312 0.134375 15.5875 0 18.6781C5.10625 24.4562 13.975 27.95 23.5156 27.95ZM15.7219 4.03125C20.9625 4.03125 25.1281 8.19687 25.1281 13.4375C25.1281 18.6781 20.9625 22.8438 15.7219 22.8438C10.4812 22.8438 6.31562 18.6781 6.31562 13.4375C6.31562 8.19687 10.4812 4.03125 15.7219 4.03125Z" fill="#DC0B7F"/>
<path d="M23.5153 30.6375C14.5122 30.6375 6.18096 27.6812 0.402832 22.7094C0.671582 24.4562 1.07471 26.3375 1.74658 27.95C3.89658 33.7281 9.54033 37.625 15.7216 37.625C20.9622 37.625 25.9341 34.8031 28.6216 30.3687C26.8747 30.5031 25.1278 30.6375 23.5153 30.6375Z" fill="#DC0B7F"/>
</svg>
