<svg width="37" height="32" viewBox="0 0 37 32" fill="none" xmlns="http://www.w3.org/2000/svg">
<path d="M31.9125 12.95C34.6182 12.95 36.8306 15.0622 36.9907 17.7276L37 18.0375V30.0625C37 30.8288 36.3788 31.45 35.6125 31.45C34.9101 31.45 34.3295 30.928 34.2377 30.2508L34.225 30.0625V25.9H2.775V30.0625C2.775 30.7649 2.25302 31.3455 1.57578 31.4373L1.3875 31.45C0.685063 31.45 0.104542 30.928 0.0126663 30.2508L0 30.0625V18.0375C0 15.3318 2.11215 13.1195 4.77758 12.9593L5.0875 12.95H31.9125ZM8.7875 0H28.2125C30.9182 0 33.1306 2.11215 33.2907 4.77758L33.3 5.0875V11.1H27.75L27.7376 10.8843C27.6389 10.035 26.9651 9.36109 26.1157 9.26245L25.9 9.25H22.2C21.2513 9.25 20.4693 9.96417 20.3624 10.8843L20.35 11.1H16.65L16.6376 10.8843C16.5389 10.035 15.8651 9.36109 15.0157 9.26245L14.8 9.25H11.1C10.1513 9.25 9.36931 9.96417 9.26245 10.8843L9.25 11.1H3.7V5.0875C3.7 2.38182 5.81215 0.169452 8.47758 0.00928462L8.7875 0Z" fill="#473D87"/>
</svg>
