<svg width="47" height="30" viewBox="0 0 47 30" fill="none" xmlns="http://www.w3.org/2000/svg">
<path d="M0 13.2188V16.1562C11.75 33.7812 35.25 33.7812 47 16.1562V13.2188C35.25 -4.40625 11.75 -4.40625 0 13.2188ZM23.5 26.4375C17.01 26.4375 11.75 21.1775 11.75 14.6875C11.75 8.19746 17.01 2.9375 23.5 2.9375C29.99 2.9375 35.25 8.19746 35.25 14.6875C35.25 21.1775 29.99 26.4375 23.5 26.4375ZM23.5 8.07812C23.5 7.31621 23.6561 6.60019 23.8947 5.91172C23.757 5.90254 23.6377 5.875 23.5 5.875C18.6348 5.875 14.6875 9.82227 14.6875 14.6875C14.6875 19.5527 18.6348 23.5 23.5 23.5C28.3652 23.5 32.3125 19.5527 32.3125 14.6875C32.3125 14.5498 32.2758 14.4305 32.2758 14.2928C31.5965 14.5314 30.8713 14.6875 30.1094 14.6875C26.4559 14.6875 23.5 11.7316 23.5 8.07812Z" fill="#2893D1"/>
</svg>
