<svg width="34" height="34" viewBox="0 0 34 34" fill="none" xmlns="http://www.w3.org/2000/svg">
<path d="M25.9102 15.8894H25.0684C23.0887 15.8894 22.0968 13.496 23.4969 12.0959L24.0918 11.5002C24.288 11.2895 24.3947 11.011 24.3896 10.7232C24.3845 10.4354 24.2679 10.1608 24.0643 9.95733C23.8607 9.75382 23.5861 9.63726 23.2983 9.6322C23.0106 9.62714 22.732 9.73397 22.5214 9.93019L21.9261 10.5247C20.5261 11.9244 18.1326 10.933 18.1326 8.9532V8.11137C18.1326 7.81662 18.0155 7.53394 17.8071 7.32551C17.5987 7.11709 17.316 7 17.0212 7C16.7265 7 16.4438 7.11709 16.2354 7.32551C16.0269 7.53394 15.9099 7.81662 15.9099 8.11137V8.95359C15.9099 10.9334 13.5164 11.9248 12.1163 10.5251L11.521 9.93019C11.3104 9.73397 11.0319 9.62714 10.7441 9.6322C10.4563 9.63726 10.1817 9.75382 9.97816 9.95733C9.7746 10.1608 9.65797 10.4354 9.65284 10.7232C9.64771 11.011 9.75447 11.2895 9.95064 11.5002L10.5464 12.0959C11.9464 13.496 10.9546 15.8894 8.97482 15.8894H8.13221C7.98453 15.8866 7.83779 15.9133 7.70055 15.9679C7.56331 16.0225 7.43833 16.1039 7.33291 16.2074C7.2275 16.3109 7.14376 16.4343 7.0866 16.5705C7.02944 16.7067 7 16.8529 7 17.0006C7 17.1483 7.02944 17.2945 7.0866 17.4307C7.14376 17.5669 7.2275 17.6903 7.33291 17.7938C7.43833 17.8972 7.56331 17.9786 7.70055 18.0332C7.83779 18.0878 7.98453 18.1145 8.13221 18.1118H8.97404C10.9538 18.1118 11.9456 20.5056 10.5456 21.9057L9.95064 22.501C9.75639 22.712 9.65124 22.9899 9.65717 23.2767C9.6631 23.5634 9.77964 23.8368 9.98244 24.0396C10.1852 24.2424 10.4586 24.3589 10.7453 24.3648C11.0321 24.3708 11.31 24.2656 11.521 24.0714L12.1163 23.4756C13.5164 22.0756 15.9099 23.0674 15.9099 25.0472V25.8886C15.9099 26.1834 16.0269 26.4661 16.2354 26.6745C16.4438 26.8829 16.7265 27 17.0212 27C17.316 27 17.5987 26.8829 17.8071 26.6745C18.0155 26.4661 18.1326 26.1834 18.1326 25.8886V25.048C18.1326 23.0682 20.5261 22.0764 21.9261 23.4764L22.5214 24.0714C22.7324 24.2656 23.0104 24.3708 23.2971 24.3648C23.5839 24.3589 23.8572 24.2424 24.06 24.0396C24.2628 23.8368 24.3794 23.5634 24.3853 23.2767C24.3912 22.9899 24.2861 22.712 24.0918 22.501L23.4961 21.9057C22.096 20.5056 23.0879 18.1118 25.0676 18.1118H25.9091C26.0567 18.1145 26.2035 18.0878 26.3407 18.0332C26.478 17.9786 26.603 17.8972 26.7084 17.7938C26.8138 17.6903 26.8975 17.5669 26.9547 17.4307C27.0118 17.2945 27.0413 17.1483 27.0413 17.0006C27.0413 16.8529 27.0118 16.7067 26.9547 16.5705C26.8975 16.4343 26.8138 16.3109 26.7084 16.2074C26.603 16.1039 26.478 16.0225 26.3407 15.9679C26.2035 15.9133 26.0567 15.8866 25.9091 15.8894H25.9102ZM15.7712 17.6258C15.4003 17.6258 15.0378 17.5158 14.7294 17.3098C14.4211 17.1038 14.1808 16.8109 14.0388 16.4683C13.8969 16.1257 13.8598 15.7487 13.9321 15.3849C14.0045 15.0212 14.1831 14.6871 14.4453 14.4249C14.7075 14.1626 15.0416 13.984 15.4054 13.9117C15.7691 13.8393 16.1461 13.8765 16.4887 14.0184C16.8314 14.1603 17.1242 14.4006 17.3302 14.709C17.5363 15.0174 17.6463 15.3799 17.6463 15.7507C17.6463 16.248 17.4487 16.725 17.0971 17.0766C16.7454 17.4283 16.2685 17.6258 15.7712 17.6258ZM18.8963 19.8134C18.7109 19.8134 18.5296 19.7584 18.3754 19.6554C18.2213 19.5524 18.1011 19.4059 18.0301 19.2346C17.9592 19.0633 17.9406 18.8748 17.9768 18.693C18.013 18.5111 18.1022 18.344 18.2334 18.2129C18.3645 18.0818 18.5315 17.9925 18.7134 17.9563C18.8953 17.9202 19.0838 17.9387 19.2551 18.0097C19.4264 18.0806 19.5728 18.2008 19.6758 18.355C19.7789 18.5092 19.8338 18.6904 19.8338 18.8759C19.8338 19.1245 19.7351 19.363 19.5592 19.5388C19.3834 19.7146 19.145 19.8134 18.8963 19.8134Z" fill="#EA5D0B"/>
</svg>
