<svg width="23" height="23" viewBox="0 0 23 23" fill="none" xmlns="http://www.w3.org/2000/svg">
<path fill-rule="evenodd" clip-rule="evenodd" d="M11.67 1.89004C12.6487 1.88859 13.5967 2.2314 14.3481 2.85847C15.0995 3.48554 15.6064 4.3569 15.78 5.32004H7.55004C7.72585 4.35608 8.23472 3.48452 8.98777 2.85759C9.74082 2.23066 10.6902 1.8882 11.67 1.89004ZM6.54004 5.32004C6.72075 4.08986 7.33792 2.96573 8.27884 2.15293C9.21977 1.34012 10.4217 0.892883 11.665 0.892883C12.9084 0.892883 14.1103 1.34012 15.0512 2.15293C15.9922 2.96573 16.6093 4.08986 16.79 5.32004H17.79C19.3 5.32004 20.9 6.42004 21.47 9.00004L22.4 16.23C23.08 20.96 20.34 22.89 16.67 22.89H6.67004C3.02004 22.89 0.210042 21.56 1.01004 16.23L1.94004 9.00004C2.43004 6.34004 4.13004 5.32004 5.62004 5.32004H6.54004ZM2.00004 16.38L2.93004 9.18004C3.03047 8.30897 3.42981 7.49967 4.06004 6.89004C4.48944 6.50643 5.04426 6.29304 5.62004 6.29004H17.8C18.74 6.29004 19.99 6.95004 20.49 9.15004L21.42 16.33C21.73 18.49 21.24 19.81 20.42 20.59C19.9132 21.0428 19.3219 21.3907 18.68 21.6138C18.0381 21.8369 17.3584 21.9308 16.68 21.89H6.68004C5.32271 22.0194 3.96554 21.6418 2.87004 20.83C2.13004 20.15 1.62004 18.89 2.00004 16.38ZM14.42 10.45C14.4187 10.3512 14.4372 10.253 14.4744 10.1614C14.5116 10.0698 14.5668 9.98662 14.6367 9.91671C14.7066 9.8468 14.7898 9.7916 14.8814 9.75439C14.973 9.71717 15.0712 9.69869 15.17 9.70004C15.369 9.70004 15.5597 9.77906 15.7004 9.91971C15.841 10.0604 15.92 10.2511 15.92 10.45C15.92 10.649 15.841 10.8397 15.7004 10.9804C15.5597 11.121 15.369 11.2 15.17 11.2C14.9711 11.2 14.7804 11.121 14.6397 10.9804C14.4991 10.8397 14.42 10.649 14.42 10.45ZM8.19004 9.70004C7.99113 9.70004 7.80036 9.77906 7.65971 9.91971C7.51906 10.0604 7.44004 10.2511 7.44004 10.45C7.44004 10.649 7.51906 10.8397 7.65971 10.9804C7.80036 11.121 7.99113 11.2 8.19004 11.2H8.25004C8.44895 11.2 8.63972 11.121 8.78037 10.9804C8.92103 10.8397 9.00004 10.649 9.00004 10.45C9.00004 10.2511 8.92103 10.0604 8.78037 9.91971C8.63972 9.77906 8.44895 9.70004 8.25004 9.70004H8.19004Z" fill="white"/>
</svg>
