<svg width="22" height="23" viewBox="0 0 22 23" fill="none" xmlns="http://www.w3.org/2000/svg">
<g clip-path="url(#clip0_39_1241)">
<path d="M0.630967 16.305L0.632395 16.2948L1.56156 9.08013C1.79204 7.84898 2.29063 7.04068 2.86266 6.54088C3.4386 6.03767 4.11663 5.82239 4.74742 5.82239H16.9264C18.1514 5.82239 19.5794 6.69869 20.1133 9.08862L21.0414 16.2948L21.0424 16.3019C21.367 18.5641 20.8646 20.0538 19.9478 20.9836C19.0175 21.9271 17.5679 22.3899 15.8092 22.3899H5.82075C4.02114 22.3899 2.56445 22.0597 1.64526 21.1962C0.751804 20.3568 0.243395 18.8906 0.630967 16.305Z" stroke="#786FC4" stroke-linecap="round" stroke-linejoin="round"/>
<mask id="mask0_39_1241" style="mask-type:luminance" maskUnits="userSpaceOnUse" x="5" y="0" width="12" height="7">
<path fill-rule="evenodd" clip-rule="evenodd" d="M15.9737 6.05961C15.9737 3.20457 13.6592 0.89006 10.8042 0.89006C9.42937 0.884281 8.10885 1.42635 7.13464 2.39645C6.16043 3.36655 5.61279 4.68476 5.61279 6.05961" fill="white"/>
<path d="M15.9737 6.05961C15.9737 3.20457 13.6592 0.89006 10.8042 0.89006C9.42937 0.884281 8.10885 1.42635 7.13464 2.39645C6.16043 3.36655 5.61279 4.68476 5.61279 6.05961" stroke="#0B3373"/>
</mask>
<g mask="url(#mask0_39_1241)">
<path d="M14.9737 6.05961C14.9737 6.61189 15.4214 7.05961 15.9737 7.05961C16.526 7.05961 16.9737 6.61189 16.9737 6.05961H14.9737ZM10.8042 0.89006L10.8 1.89006H10.8042V0.89006ZM4.61279 6.05961C4.61279 6.61189 5.06051 7.05961 5.61279 7.05961C6.16508 7.05961 6.61279 6.61189 6.61279 6.05961H4.61279ZM16.9737 6.05961C16.9737 2.65229 14.2115 -0.10994 10.8042 -0.10994V1.89006C13.1069 1.89006 14.9737 3.75684 14.9737 6.05961H16.9737ZM10.8084 -0.109931C9.16765 -0.116826 7.5917 0.530091 6.42903 1.68785L7.84025 3.10505C8.62601 2.32261 9.69109 1.8854 10.8 1.89006L10.8084 -0.109931ZM6.42903 1.68785C5.26636 2.84561 4.61279 4.41882 4.61279 6.05961H6.61279C6.61279 4.9507 7.0545 3.88749 7.84025 3.10505L6.42903 1.68785Z" fill="white"/>
<path d="M14.9737 6.05961C14.9737 6.61189 15.4214 7.05961 15.9737 7.05961C16.526 7.05961 16.9737 6.61189 16.9737 6.05961M14.9737 6.05961H16.9737M14.9737 6.05961C14.9737 3.75684 13.1069 1.89006 10.8042 1.89006M16.9737 6.05961C16.9737 2.65229 14.2115 -0.10994 10.8042 -0.10994V1.89006M10.8 1.89006L10.8042 0.89006V1.89006M10.8 1.89006H10.8042M10.8 1.89006C9.69109 1.8854 8.62601 2.32261 7.84025 3.10505M10.8 1.89006L10.8084 -0.109931C9.16765 -0.116826 7.5917 0.530091 6.42903 1.68785M7.13464 2.39645L7.84025 3.10505M7.84025 3.10505L6.42903 1.68785M7.84025 3.10505C7.0545 3.88749 6.61279 4.9507 6.61279 6.05961M4.61279 6.05961C4.61279 6.61189 5.06051 7.05961 5.61279 7.05961C6.16508 7.05961 6.61279 6.61189 6.61279 6.05961M4.61279 6.05961H6.61279M4.61279 6.05961C4.61279 4.41882 5.26636 2.84561 6.42903 1.68785" stroke="#786FC4"/>
</g>
<path d="M14.3527 10.4481H14.2979" stroke="#786FC4" stroke-width="1.5" stroke-linecap="round" stroke-linejoin="round"/>
<path d="M7.37605 10.4481H7.32129" stroke="#786FC4" stroke-width="1.5" stroke-linecap="round" stroke-linejoin="round"/>
</g>
<defs>
<clipPath id="clip0_39_1241">
<rect width="22" height="22" fill="white" transform="translate(0 0.890015)"/>
</clipPath>
</defs>
</svg>
