<svg width="17" height="17" viewBox="0 0 17 17" fill="none" xmlns="http://www.w3.org/2000/svg">
<g clip-path="url(#clip0_44_2569)">
<path fill-rule="evenodd" clip-rule="evenodd" d="M8.087 15.5737C6.42377 14.5652 4.87648 13.3783 3.47284 12.0342C2.48602 11.0664 1.73476 9.88627 1.27661 8.58453C0.452156 6.05932 1.41517 3.16844 4.11023 2.31291C5.52665 1.86367 7.08052 2.66936 8.27407 3.55178C9.46807 2.67042 11.0076 1.86484 12.4241 2.31291C15.1191 3.16844 16.0891 6.05932 15.2646 8.58453C14.8065 9.88627 14.0552 11.0664 13.0683 12.0342C11.6648 13.3783 10.1175 14.5652 8.4542 15.5737L8.27407 15.6841L8.087 15.5737Z" stroke="#EB5757" stroke-width="1.45588" stroke-linecap="round" stroke-linejoin="round"/>
</g>
<defs>
<clipPath id="clip0_44_2569">
<rect width="16.5" height="16" fill="white" transform="translate(0.0200195 0.890015)"/>
</clipPath>
</defs>
</svg>
