<svg width="13" height="15" viewBox="0 0 13 15" fill="none" xmlns="http://www.w3.org/2000/svg">
<path fill-rule="evenodd" clip-rule="evenodd" d="M12.4938 8.54585C12.8925 5.23644 12.3023 3.14712 11.2379 2.20211C9.51982 0.588313 3.71822 0.348909 1.6628 2.27405C0.739753 3.21576 0.414628 4.59784 0.378997 6.30883C0.343367 8.02037 0.301056 11.2265 3.33019 12.0963H3.33296L3.33019 13.4246C3.33019 13.4246 3.30958 13.9627 3.6581 14.0709C4.03347 14.1909 4.21531 13.9763 5.27059 12.7311L5.47691 12.4879C7.55014 12.6652 9.14237 12.2588 9.32331 12.1996C9.36069 12.1872 9.41365 12.1735 9.47934 12.1564C10.1493 11.9829 12.1451 11.4656 12.4938 8.54585ZM5.68123 11.5533C5.68123 11.5533 4.36903 13.1671 3.96095 13.586C3.82734 13.7222 3.68092 13.7095 3.68315 13.4394C3.68315 13.262 3.69316 11.2343 3.69316 11.2343C1.21326 10.5333 1.26924 7.9635 1.30108 6.50173L1.30427 6.35001C1.33211 4.92126 1.5971 3.75113 2.37874 2.96317C4.18197 1.29556 9.26875 1.66839 10.5648 2.86982C12.007 4.13083 11.6692 7.4868 11.5995 8.17983C11.5926 8.24818 11.5883 8.29063 11.5886 8.30261C11.2953 10.7123 9.70992 11.0899 9.13935 11.2258C9.07624 11.2409 9.02554 11.2529 8.99038 11.2644C8.83951 11.3139 7.43935 11.6692 5.68123 11.5533ZM6.40716 3.27683C6.19282 3.27683 6.19282 3.60629 6.40716 3.60903C8.0701 3.62167 9.43963 4.76489 9.45466 6.8619C9.45466 7.08319 9.78313 7.08044 9.78034 6.85915C9.76253 4.59961 8.26662 3.28946 6.40716 3.27683ZM8.92021 6.52209C8.91743 6.74337 8.58952 6.73294 8.59453 6.5144C8.62014 5.42335 7.95152 4.56895 6.68219 4.47395C6.46841 4.45857 6.49068 4.12637 6.70502 4.14175C8.16864 4.24992 8.9475 5.27618 8.92021 6.52209ZM8.24372 7.9314C7.9687 7.77435 7.68868 7.87209 7.57288 8.02638L7.3307 8.33553C7.20767 8.49257 6.97774 8.47171 6.97774 8.47171C5.29978 8.03407 4.85106 6.30222 4.85106 6.30222C4.85106 6.30222 4.83046 6.06775 4.98412 5.94201L5.28698 5.69491C5.4384 5.5763 5.53416 5.29078 5.37995 5.01019C5.06932 4.45663 4.83559 4.17654 4.67902 3.98892C4.62795 3.92772 4.58507 3.87634 4.55043 3.82853C4.40234 3.64567 4.17965 3.60449 3.94805 3.72804H3.94305C3.46148 4.00588 2.93427 4.52588 3.10295 5.06125C3.15286 5.15913 3.21002 5.29414 3.2792 5.45756C3.60898 6.23654 4.21197 7.66087 5.60542 8.7847C6.39763 9.42769 7.65138 10.0866 8.18361 10.2387L8.18861 10.2464C8.71304 10.4188 9.22301 9.8785 9.49524 9.38925V9.38541C9.61605 9.14875 9.57596 8.92472 9.39949 8.7781C9.0866 8.4772 8.6145 8.14499 8.24372 7.9314ZM7.75671 6.23969C7.72888 5.67356 7.46944 5.39792 6.93444 5.36717C6.71787 5.35453 6.73791 5.02233 6.95224 5.03496C7.65595 5.0734 8.04677 5.48522 8.08239 6.22431C8.09242 6.4456 7.76674 6.46097 7.75671 6.23969Z" fill="#786FC4"/>
</svg>
