<svg width="44" height="44" viewBox="0 0 44 44" fill="none" xmlns="http://www.w3.org/2000/svg">
<path d="M13.5412 27.5374C13.7402 28.2575 14.4854 28.6802 15.2056 28.4812C15.9259 28.2823 16.3485 27.537 16.1495 26.8167L13.5412 27.5374ZM5.77365 8.52309C5.05362 8.32331 4.30796 8.74507 4.10819 9.4651C3.90841 10.1851 4.33017 10.9308 5.05021 11.1306L5.77365 8.52309ZM36.42 28.3685C37.1432 28.1807 37.5773 27.442 37.3893 26.7187C37.2013 25.9955 36.4628 25.5617 35.7395 25.7496L36.42 28.3685ZM18.3967 31.6759C18.9552 33.6977 17.7292 35.8305 15.5574 36.395L16.238 39.014C19.8045 38.0871 21.9839 34.4994 21.0049 30.9554L18.3967 31.6759ZM15.5574 36.395C13.3714 36.9631 11.1779 35.6943 10.6147 33.6556L8.00638 34.3761C8.98075 37.9031 12.6856 39.9373 16.238 39.014L15.5574 36.395ZM10.6147 33.6556C10.0561 31.6339 11.2821 29.501 13.4539 28.9366L12.7733 26.3175C9.20673 27.2444 7.0273 30.8322 8.00638 34.3761L10.6147 33.6556ZM13.4539 28.9366C15.6399 28.3685 17.8334 29.6372 18.3967 31.6759L21.0049 30.9554C20.0306 27.4284 16.3258 25.3944 12.7733 26.3175L13.4539 28.9366ZM16.1495 26.8167L12.2668 12.7627L9.65853 13.4833L13.5412 27.5374L16.1495 26.8167ZM8.84711 9.3758L5.77365 8.52309L5.05021 11.1306L8.12367 11.9833L8.84711 9.3758ZM12.2668 12.7627C11.8102 11.1098 10.5012 9.83472 8.84711 9.3758L8.12367 11.9833C8.89143 12.1963 9.46321 12.7763 9.65853 13.4833L12.2668 12.7627ZM20.041 32.6252L36.42 28.3685L35.7395 25.7496L19.3604 30.0061L20.041 32.6252Z" fill="#170F49"/>
<path d="M34.5729 11.2493C33.698 8.08231 33.2605 6.49879 31.9743 5.77854C30.6882 5.0583 29.0554 5.48262 25.7902 6.33121L22.3267 7.2313C19.0613 8.0799 17.4287 8.50419 16.686 9.75171C15.9434 10.9992 16.3809 12.5827 17.2559 15.7497L18.1838 19.109C19.0588 22.2759 19.4962 23.8594 20.7825 24.5798C22.0687 25.2999 23.7015 24.8756 26.9667 24.027L30.4302 23.127C33.6956 22.2784 35.3282 21.8541 36.0708 20.6065C36.4788 19.9213 36.5306 19.1348 36.3495 18.0399" stroke="#170F49" stroke-width="2.70599" stroke-linecap="round"/>
</svg>
