<svg width="39" height="36" viewBox="0 0 39 36" fill="none" xmlns="http://www.w3.org/2000/svg">
<path fill-rule="evenodd" clip-rule="evenodd" d="M38.5875 33.1186C38.5631 34.3311 37.8628 35.182 36.8536 35.3762C36.4571 35.5632 36.0149 35.6675 35.5486 35.6675H3.09126C1.384 35.6675 0 34.2686 0 32.5429V10.6706C0 8.94498 1.384 7.54604 3.09124 7.54604H5.64252C5.97083 7.54604 6.23698 7.27988 6.23698 6.95156L6.23683 2.36569C6.23679 0.69109 7.5101 -0.315223 9.11717 0.0893202L35.4917 6.72848C36.6029 7.0082 37.59 7.8887 38.1355 8.95963C38.4543 9.45114 38.6398 10.039 38.6398 10.6706V32.5429C38.6398 32.7395 38.6218 32.9319 38.5875 33.1186ZM9.81776 7.54604C9.48945 7.54604 9.22331 7.27991 9.2233 6.95161L9.22321 3.99048C9.22319 3.60332 9.58734 3.31947 9.96277 3.41398L25.2147 7.25331C25.3845 7.29605 25.3536 7.54604 25.1784 7.54604H9.81776ZM34.8055 10.6706C35.2158 10.6706 35.5486 11.0033 35.5486 11.4137V17.0907H30.4658C28.948 17.0907 27.7004 17.6747 26.8474 18.6345C26.0185 19.5669 25.636 20.768 25.636 21.9206C25.636 23.0731 26.0185 24.2744 26.8472 25.2068C27.7004 26.1666 28.9479 26.7506 30.4658 26.7506H35.5486V31.7998C35.5486 32.2103 35.2158 32.5429 34.8055 32.5429H3.83431C3.42393 32.5429 3.09124 32.2103 3.09124 31.7998V11.4137C3.09124 11.0033 3.42393 10.6706 3.83431 10.6706H34.8055ZM35.5486 23.7783V20.063H30.4658C29.7546 20.063 29.3304 20.3149 29.0688 20.6091C28.7831 20.9306 28.6083 21.4014 28.6083 21.9206C28.6083 22.44 28.7831 22.9107 29.0688 23.2322C29.3303 23.5264 29.7546 23.7783 30.4658 23.7783H35.5486Z" fill="#170F49"/>
</svg>
