<svg width="71" height="72" viewBox="0 0 71 72" fill="none" xmlns="http://www.w3.org/2000/svg">
<path d="M52.4917 35.8704C52.3632 37.8298 51.4943 39.6669 50.0611 41.0092C48.6279 42.3515 46.7379 43.0984 44.7743 43.0984C42.8107 43.0984 40.9206 42.3515 39.4875 41.0092C38.0543 39.6669 37.1854 37.8298 37.0569 35.8704V17.5574C37.1854 15.5981 38.0543 13.7609 39.4875 12.4186C40.9206 11.0764 42.8107 10.3295 44.7743 10.3295C46.7379 10.3295 48.6279 11.0764 50.0611 12.4186C51.4943 13.7609 52.3632 15.5981 52.4917 17.5574V35.8704ZM35.5156 0.730469C15.8989 0.730469 0 16.4471 0 35.8704C0 55.2938 15.8989 71.0435 35.5156 71.0435C55.1323 71.0435 71.0091 55.2883 71.0091 35.8704C71.0091 16.4526 55.1102 0.730469 35.5156 0.730469Z" fill="white"/>
</svg>
