<svg width="15" height="15" viewBox="0 0 15 15" fill="none" xmlns="http://www.w3.org/2000/svg">
<g clip-path="url(#clip0_93_132)">
<path d="M13.6766 10.7523C13.6385 10.6403 13.4025 10.4759 12.9688 10.259C12.8508 10.191 12.6828 10.0981 12.4659 9.98012C12.249 9.86095 12.0512 9.7537 11.8748 9.6536C11.7074 9.5599 11.5413 9.46376 11.3767 9.36522C11.3529 9.34615 11.2742 9.29253 11.1443 9.20196C11.039 9.12714 10.9283 9.06022 10.8131 9.00176C10.7308 8.96066 10.6404 8.93866 10.5485 8.93741C10.4234 8.93741 10.2685 9.02559 10.0838 9.20196C9.89666 9.37952 9.72625 9.57138 9.57134 9.77992C9.41642 9.98727 9.25078 10.1803 9.07799 10.3567C8.904 10.5342 8.761 10.6224 8.64899 10.6224C8.57687 10.6186 8.50593 10.6025 8.43925 10.5748C8.37449 10.5516 8.31086 10.5253 8.24859 10.4961C8.17271 10.4552 8.09838 10.4115 8.02574 10.365C7.9672 10.3286 7.908 10.2933 7.84819 10.259C7.04691 9.82337 6.31048 9.27786 5.66029 8.6383C5.02077 7.98851 4.47526 7.25248 4.03962 6.45159C4.00501 6.39173 3.96925 6.33253 3.93237 6.27404C3.88623 6.20145 3.84291 6.12711 3.80248 6.05119C3.77303 5.98902 3.74678 5.92538 3.72383 5.86053C3.69645 5.79379 3.68073 5.72285 3.67735 5.65079C3.67735 5.53878 3.76554 5.39578 3.94309 5.22179C4.11946 5.049 4.31251 4.88455 4.51986 4.72844C4.7284 4.57353 4.92026 4.40312 5.09663 4.21603C5.27419 4.03132 5.36237 3.8764 5.36237 3.75128C5.36083 3.65927 5.33842 3.56881 5.29683 3.48673C5.23846 3.37146 5.17154 3.26072 5.09663 3.15544C5.044 3.07702 4.98997 2.99955 4.93456 2.92307C4.84161 2.76815 4.74509 2.60132 4.64618 2.42495C4.53593 2.22871 4.42709 2.03168 4.31966 1.83389C4.2289 1.66506 4.13594 1.49741 4.04081 1.331C3.82274 0.897236 3.65829 0.661286 3.54746 0.624344C3.48473 0.60246 3.4184 0.592753 3.35203 0.595744C3.184 0.595744 2.96474 0.626728 2.69542 0.688694C2.47744 0.734448 2.26405 0.79986 2.05788 0.884128C1.74804 1.01521 1.41795 1.39297 1.06999 2.01979C0.754195 2.6037 0.595703 3.18166 0.595703 3.75128C0.595638 4.09829 0.645811 4.44348 0.744662 4.77611C0.833543 5.10179 0.942186 5.42175 1.06999 5.73421C1.16294 5.98327 1.21894 6.13461 1.23801 6.19062C1.45489 6.79837 1.71229 7.34177 2.01021 7.81963C2.50118 8.61447 3.1697 9.43553 4.01698 10.2828C4.86306 11.1289 5.68531 11.7986 6.47896 12.2884C6.95682 12.5863 7.50022 12.8437 8.10916 13.0618C8.16517 13.0796 8.31651 13.1357 8.56438 13.2286C8.81344 13.3216 8.98504 13.3859 9.08156 13.4193C9.40058 13.5289 9.7277 13.6134 10.0599 13.6719C10.2172 13.6934 10.3805 13.7041 10.5485 13.7041C11.1193 13.7041 11.6961 13.5456 12.28 13.2286C12.9068 12.8818 13.2846 12.5529 13.4157 12.2419C13.4836 12.087 13.5491 11.8749 13.6111 11.6044C13.6731 11.335 13.704 11.1158 13.704 10.9489C13.7077 10.8822 13.6983 10.8155 13.6766 10.7523Z" fill="white"/>
</g>
<defs>
<clipPath id="clip0_93_132">
<rect width="14.3" height="14.3" fill="white"/>
</clipPath>
</defs>
</svg>
