<svg width="33" height="26" viewBox="0 0 33 26" fill="none" xmlns="http://www.w3.org/2000/svg">
<g clip-path="url(#clip0_93_103)">
<g clip-path="url(#clip1_93_103)">
<mask id="mask0_93_103" style="mask-type:luminance" maskUnits="userSpaceOnUse" x="0" y="0" width="33" height="26">
<path d="M32.8599 0.370117H0.859863V25.3701H32.8599V0.370117Z" fill="white"/>
</mask>
<g mask="url(#mask0_93_103)">
<path d="M6.6775 25.2459V23.5912C6.6775 22.9568 6.29325 22.5432 5.63463 22.5432C5.30538 22.5432 4.94863 22.6535 4.70163 23.0121C4.50963 22.7087 4.23525 22.5432 3.82363 22.5432C3.54913 22.5432 3.27488 22.6259 3.05525 22.9293V22.5984H2.479V25.2459H3.05525V23.7842C3.05525 23.3155 3.30225 23.0947 3.6865 23.0947C4.0705 23.0947 4.26275 23.343 4.26275 23.7842V25.2459H4.839V23.7842C4.839 23.3155 5.11325 23.0947 5.47 23.0947C5.85425 23.0947 6.04625 23.343 6.04625 23.7842V25.2459H6.6775ZM15.2114 22.5984H14.2785V21.7986H13.7023V22.5984H13.1809V23.1223H13.7022V24.3358C13.7022 24.9426 13.9492 25.301 14.6078 25.301C14.8548 25.301 15.129 25.2184 15.3213 25.1081L15.1565 24.6116C14.9919 24.7219 14.7999 24.7495 14.6627 24.7495C14.3883 24.7495 14.2785 24.5841 14.2785 24.3082V23.1223H15.2114V22.5984ZM20.0959 22.5431C19.7667 22.5431 19.5472 22.7087 19.4099 22.9293V22.5984H18.8337V25.2459H19.4099V23.7567C19.4099 23.3155 19.6019 23.0672 19.9587 23.0672C20.0684 23.0672 20.2057 23.0949 20.3154 23.1224L20.48 22.5709C20.3703 22.5432 20.2057 22.5431 20.0959 22.5431ZM12.7144 22.8191C12.4399 22.626 12.0558 22.5434 11.6442 22.5434C10.9857 22.5434 10.5466 22.8743 10.5466 23.3983C10.5466 23.8396 10.8759 24.0877 11.4522 24.1705L11.7265 24.1981C12.0284 24.2532 12.193 24.3359 12.193 24.4739C12.193 24.6669 11.9735 24.8048 11.5893 24.8048C11.2052 24.8048 10.9033 24.6669 10.7111 24.529L10.4368 24.9702C10.7386 25.1908 11.1503 25.3011 11.5618 25.3011C12.3302 25.3011 12.7693 24.9427 12.7693 24.4462C12.7693 23.9774 12.4125 23.7292 11.8637 23.6465L11.5893 23.6189C11.3423 23.5912 11.1503 23.5362 11.1503 23.3707C11.1503 23.1777 11.3423 23.0674 11.6442 23.0674C11.9735 23.0674 12.3028 23.2052 12.4674 23.288L12.7144 22.8191ZM28.0263 22.5434C27.6969 22.5434 27.4774 22.7088 27.3402 22.9294V22.5985H26.7639V25.246H27.3402V23.7568C27.3402 23.3156 27.5323 23.0674 27.8889 23.0674C27.9988 23.0674 28.136 23.095 28.2458 23.1225L28.4104 22.571C28.3007 22.5434 28.136 22.5434 28.0263 22.5434ZM20.6722 23.9223C20.6722 24.722 21.2209 25.3011 22.0717 25.3011C22.4558 25.3011 22.7302 25.2185 23.0045 24.9979L22.7302 24.529C22.5107 24.6945 22.2912 24.7772 22.0442 24.7772C21.5777 24.7772 21.2484 24.4463 21.2484 23.9223C21.2484 23.4259 21.5777 23.0949 22.0442 23.0674C22.2912 23.0674 22.5107 23.15 22.7302 23.3156L23.0045 22.8468C22.7302 22.626 22.4558 22.5434 22.0717 22.5434C21.2209 22.5434 20.6722 23.1225 20.6722 23.9223ZM25.9957 23.9223V22.5985H25.4194V22.9294C25.2273 22.6813 24.9529 22.5434 24.5962 22.5434C23.8553 22.5434 23.279 23.1225 23.279 23.9223C23.279 24.722 23.8553 25.3011 24.5962 25.3011C24.9803 25.3011 25.2548 25.1633 25.4194 24.9151V25.246H25.9957V23.9223ZM23.8827 23.9223C23.8827 23.4534 24.1845 23.0674 24.6784 23.0674C25.1449 23.0674 25.4743 23.4259 25.4743 23.9223C25.4743 24.3911 25.1449 24.7772 24.6784 24.7772C24.1845 24.7495 23.8827 24.3911 23.8827 23.9223ZM16.9952 22.5434C16.2268 22.5434 15.6779 23.0949 15.6779 23.9223C15.6779 24.7496 16.2267 25.3011 17.0225 25.3011C17.4067 25.3011 17.7909 25.1908 18.0928 24.9427L17.8183 24.529C17.5988 24.6945 17.3244 24.8048 17.05 24.8048C16.6933 24.8048 16.3365 24.6393 16.2542 24.1704H18.2025V23.9499C18.23 23.0949 17.7362 22.5434 16.9952 22.5434ZM16.995 23.0397C17.3517 23.0397 17.5988 23.2604 17.6535 23.6741H16.2815C16.3364 23.3156 16.5834 23.0397 16.995 23.0397ZM31.2915 23.9223V21.5505H30.7153V22.9294C30.5232 22.6813 30.2488 22.5434 29.892 22.5434C29.1512 22.5434 28.5749 23.1225 28.5749 23.9223C28.5749 24.722 29.1512 25.3011 29.892 25.3011C30.2763 25.3011 30.5507 25.1633 30.7153 24.9151V25.246H31.2915V23.9223ZM29.1787 23.9223C29.1787 23.4534 29.4804 23.0674 29.9744 23.0674C30.4409 23.0674 30.7702 23.4259 30.7702 23.9223C30.7702 24.3911 30.4409 24.7772 29.9744 24.7772C29.4804 24.7495 29.1787 24.3911 29.1787 23.9223ZM9.91525 23.9223V22.5985H9.339V22.9294C9.14688 22.6813 8.8725 22.5434 8.51575 22.5434C7.77488 22.5434 7.19863 23.1225 7.19863 23.9223C7.19863 24.722 7.77488 25.3011 8.51575 25.3011C8.9 25.3011 9.17438 25.1633 9.339 24.9151V25.246H9.91525V23.9223ZM7.77488 23.9223C7.77488 23.4534 8.07675 23.0674 8.57063 23.0674C9.03713 23.0674 9.3665 23.4259 9.3665 23.9223C9.3665 24.3911 9.03713 24.7772 8.57063 24.7772C8.07675 24.7495 7.77488 24.3911 7.77488 23.9223Z" fill="#DFE3BF"/>
<path d="M12.522 2.49365H21.1658V18.1031H12.522V2.49365Z" fill="#FF5F00"/>
<path d="M13.071 10.2984C13.071 7.1269 14.5528 4.31384 16.8303 2.49361C15.1565 1.16987 13.0436 0.370117 10.7386 0.370117C5.27773 0.370117 0.859863 4.8102 0.859863 10.2984C0.859863 15.7864 5.27773 20.2266 10.7385 20.2266C13.0435 20.2266 15.1564 19.4269 16.8303 18.103C14.5528 16.3104 13.071 13.4698 13.071 10.2984Z" fill="#EB001B"/>
<path d="M32.8283 10.2984C32.8283 15.7864 28.4104 20.2266 22.9497 20.2266C20.6447 20.2266 18.5318 19.4269 16.8579 18.103C19.1629 16.2829 20.6173 13.4698 20.6173 10.2984C20.6173 7.1269 19.1354 4.31384 16.8579 2.49361C18.5317 1.16987 20.6447 0.370117 22.9497 0.370117C28.4104 0.370117 32.8283 4.83783 32.8283 10.2984Z" fill="#F79E1B"/>
</g>
</g>
</g>
<defs>
<clipPath id="clip0_93_103">
<rect width="32" height="25" fill="white" transform="translate(0.859863 0.370117)"/>
</clipPath>
<clipPath id="clip1_93_103">
<rect width="32" height="25" fill="white" transform="translate(0.859863 0.370117)"/>
</clipPath>
</defs>
</svg>
