<svg width="15" height="15" viewBox="0 0 15 15" fill="none" xmlns="http://www.w3.org/2000/svg">
<g clip-path="url(#clip0_93_138)">
<path fill-rule="evenodd" clip-rule="evenodd" d="M13.4938 8.54604C13.8925 5.23662 13.3023 3.1473 12.2379 2.2023C10.5198 0.588496 4.71822 0.349092 2.6628 2.27423C1.73975 3.21594 1.41463 4.59802 1.379 6.30901C1.34337 8.02056 1.30106 11.2267 4.33019 12.0965H4.33296L4.33019 13.4248C4.33019 13.4248 4.30958 13.9629 4.6581 14.071C5.03347 14.1911 5.21531 13.9765 6.27059 12.7313L6.47691 12.4881C8.55014 12.6654 10.1424 12.259 10.3233 12.1998C10.3607 12.1874 10.4136 12.1737 10.4793 12.1566C11.1493 11.9831 13.1451 11.4658 13.4938 8.54604ZM6.68123 11.5534C6.68123 11.5534 5.36903 13.1672 4.96095 13.5862C4.82734 13.7224 4.68092 13.7097 4.68315 13.4396C4.68315 13.2622 4.69316 11.2344 4.69316 11.2344C2.21326 10.5335 2.26924 7.96368 2.30108 6.50192L2.30427 6.35019C2.33211 4.92144 2.5971 3.75131 3.37874 2.96335C5.18197 1.29574 10.2687 1.66858 11.5648 2.87C13.007 4.13101 12.6692 7.48698 12.5995 8.18001C12.5926 8.24837 12.5883 8.29081 12.5886 8.30279C12.2953 10.7125 10.7099 11.0901 10.1394 11.226C10.0762 11.241 10.0255 11.2531 9.99038 11.2646C9.83951 11.3141 8.43935 11.6693 6.68123 11.5534ZM7.40716 3.27702C7.19282 3.27702 7.19282 3.60648 7.40716 3.60922C9.0701 3.62185 10.4396 4.76508 10.4547 6.86208C10.4547 7.08337 10.7831 7.08063 10.7803 6.85934C10.7625 4.5998 9.26662 3.28964 7.40716 3.27702ZM9.92021 6.52228C9.91743 6.74356 9.58952 6.73313 9.59453 6.51459C9.62014 5.42353 8.95152 4.56913 7.68219 4.47413C7.46841 4.45876 7.49068 4.12656 7.70502 4.14193C9.16864 4.2501 9.9475 5.27637 9.92021 6.52228ZM9.24372 7.93158C8.9687 7.77453 8.68868 7.87227 8.57288 8.02657L8.3307 8.33571C8.20767 8.49276 7.97774 8.47189 7.97774 8.47189C6.29978 8.03425 5.85106 6.3024 5.85106 6.3024C5.85106 6.3024 5.83046 6.06794 5.98412 5.94219L6.28698 5.69509C6.4384 5.57649 6.53416 5.29096 6.37995 5.01037C6.06932 4.45682 5.83559 4.17673 5.67902 3.98911C5.62795 3.92791 5.58507 3.87652 5.55043 3.82871C5.40234 3.64586 5.17965 3.60468 4.94805 3.72822H4.94305C4.46148 4.00607 3.93427 4.52606 4.10295 5.06144C4.15286 5.15932 4.21002 5.29432 4.2792 5.45774C4.60898 6.23672 5.21197 7.66105 6.60542 8.78488C7.39763 9.42787 8.65138 10.0868 9.18361 10.2389L9.18861 10.2466C9.71304 10.419 10.223 9.87868 10.4952 9.38943V9.38559C10.616 9.14893 10.576 8.9249 10.3995 8.77828C10.0866 8.47738 9.6145 8.14517 9.24372 7.93158ZM8.75671 6.23987C8.72888 5.67374 8.46944 5.3981 7.93444 5.36735C7.71787 5.35472 7.73791 5.02252 7.95224 5.03514C8.65595 5.07358 9.04677 5.4854 9.08239 6.22449C9.09242 6.44578 8.76674 6.46115 8.75671 6.23987Z" fill="white"/>
</g>
<defs>
<clipPath id="clip0_93_138">
<rect width="13.19" height="13.19" fill="white" transform="translate(0.899902 0.910156)"/>
</clipPath>
</defs>
</svg>
